<mxfile host="app.diagrams.net" modified="2024-03-06T12:12:22.469Z" agent="Mozilla/5.0 (Windows NT 10.0; Win64; x64) AppleWebKit/537.36 (KHTML, like Gecko) Chrome/119.0.0.0 Safari/537.36" etag="yXl6ZzWo16tiAbCQex6o" version="24.0.2" type="device">
  <diagram name="PÃ¡gina-1" id="5lv9d8EFJz7diGP7I59u">
    <mxGraphModel dx="1039" dy="757" grid="1" gridSize="10" guides="1" tooltips="1" connect="1" arrows="1" fold="1" page="1" pageScale="1" pageWidth="827" pageHeight="1169" math="0" shadow="0">
      <root>
        <mxCell id="0" />
        <mxCell id="1" parent="0" />
        <mxCell id="ymOIlbTYDnZ6hCdEmkxo-14" style="edgeStyle=orthogonalEdgeStyle;rounded=0;orthogonalLoop=1;jettySize=auto;html=1;entryX=1;entryY=0.5;entryDx=0;entryDy=0;endArrow=none;endFill=0;" edge="1" parent="1" source="ymOIlbTYDnZ6hCdEmkxo-1" target="ymOIlbTYDnZ6hCdEmkxo-9">
          <mxGeometry relative="1" as="geometry">
            <Array as="points">
              <mxPoint x="730" y="925" />
            </Array>
          </mxGeometry>
        </mxCell>
        <mxCell id="ymOIlbTYDnZ6hCdEmkxo-1" value="AlumnoUser" style="rounded=0;whiteSpace=wrap;html=1;" vertex="1" parent="1">
          <mxGeometry x="660" y="710" width="120" height="60" as="geometry" />
        </mxCell>
        <mxCell id="ymOIlbTYDnZ6hCdEmkxo-24" style="edgeStyle=orthogonalEdgeStyle;rounded=0;orthogonalLoop=1;jettySize=auto;html=1;entryX=1;entryY=0.5;entryDx=0;entryDy=0;endArrow=none;endFill=0;" edge="1" parent="1" source="ymOIlbTYDnZ6hCdEmkxo-2" target="ymOIlbTYDnZ6hCdEmkxo-23">
          <mxGeometry relative="1" as="geometry">
            <Array as="points">
              <mxPoint x="1080" y="925" />
            </Array>
          </mxGeometry>
        </mxCell>
        <mxCell id="ymOIlbTYDnZ6hCdEmkxo-2" value="CentroUser" style="rounded=0;whiteSpace=wrap;html=1;" vertex="1" parent="1">
          <mxGeometry x="1020" y="710" width="120" height="60" as="geometry" />
        </mxCell>
        <mxCell id="ymOIlbTYDnZ6hCdEmkxo-6" style="edgeStyle=orthogonalEdgeStyle;rounded=0;orthogonalLoop=1;jettySize=auto;html=1;entryX=0;entryY=0.5;entryDx=0;entryDy=0;endArrow=none;endFill=0;" edge="1" parent="1" source="ymOIlbTYDnZ6hCdEmkxo-3" target="ymOIlbTYDnZ6hCdEmkxo-5">
          <mxGeometry relative="1" as="geometry" />
        </mxCell>
        <mxCell id="ymOIlbTYDnZ6hCdEmkxo-13" style="edgeStyle=orthogonalEdgeStyle;rounded=0;orthogonalLoop=1;jettySize=auto;html=1;entryX=0;entryY=0.5;entryDx=0;entryDy=0;endArrow=none;endFill=0;" edge="1" parent="1" source="ymOIlbTYDnZ6hCdEmkxo-3" target="ymOIlbTYDnZ6hCdEmkxo-9">
          <mxGeometry relative="1" as="geometry">
            <Array as="points">
              <mxPoint x="330" y="925" />
            </Array>
          </mxGeometry>
        </mxCell>
        <mxCell id="ymOIlbTYDnZ6hCdEmkxo-3" value="EmpresaUser" style="rounded=0;whiteSpace=wrap;html=1;" vertex="1" parent="1">
          <mxGeometry x="270" y="710" width="120" height="60" as="geometry" />
        </mxCell>
        <mxCell id="ymOIlbTYDnZ6hCdEmkxo-4" value="Invitado" style="rounded=0;whiteSpace=wrap;html=1;" vertex="1" parent="1">
          <mxGeometry x="80" y="770" width="120" height="60" as="geometry" />
        </mxCell>
        <mxCell id="ymOIlbTYDnZ6hCdEmkxo-7" style="edgeStyle=orthogonalEdgeStyle;rounded=0;orthogonalLoop=1;jettySize=auto;html=1;exitX=1;exitY=0.5;exitDx=0;exitDy=0;endArrow=none;endFill=0;" edge="1" parent="1" source="ymOIlbTYDnZ6hCdEmkxo-5" target="ymOIlbTYDnZ6hCdEmkxo-1">
          <mxGeometry relative="1" as="geometry" />
        </mxCell>
        <mxCell id="ymOIlbTYDnZ6hCdEmkxo-5" value="Aceptar" style="rhombus;whiteSpace=wrap;html=1;" vertex="1" parent="1">
          <mxGeometry x="460" y="705" width="120" height="70" as="geometry" />
        </mxCell>
        <mxCell id="ymOIlbTYDnZ6hCdEmkxo-8" value="&lt;b&gt;&lt;font style=&quot;font-size: 18px;&quot;&gt;1:N&lt;/font&gt;&lt;/b&gt;" style="text;html=1;align=center;verticalAlign=middle;resizable=0;points=[];autosize=1;strokeColor=none;fillColor=none;" vertex="1" parent="1">
          <mxGeometry x="495" y="665" width="50" height="40" as="geometry" />
        </mxCell>
        <mxCell id="ymOIlbTYDnZ6hCdEmkxo-9" value="Seguir" style="rhombus;whiteSpace=wrap;html=1;" vertex="1" parent="1">
          <mxGeometry x="460" y="890" width="120" height="70" as="geometry" />
        </mxCell>
        <mxCell id="ymOIlbTYDnZ6hCdEmkxo-15" value="&lt;span style=&quot;font-size: 18px;&quot;&gt;&lt;b&gt;N:M&lt;/b&gt;&lt;/span&gt;" style="text;html=1;align=center;verticalAlign=middle;resizable=0;points=[];autosize=1;strokeColor=none;fillColor=none;" vertex="1" parent="1">
          <mxGeometry x="490" y="850" width="60" height="40" as="geometry" />
        </mxCell>
        <mxCell id="ymOIlbTYDnZ6hCdEmkxo-17" style="edgeStyle=orthogonalEdgeStyle;rounded=0;orthogonalLoop=1;jettySize=auto;html=1;exitX=1;exitY=0.5;exitDx=0;exitDy=0;entryX=0;entryY=0.5;entryDx=0;entryDy=0;endArrow=none;endFill=0;" edge="1" parent="1" source="ymOIlbTYDnZ6hCdEmkxo-16" target="ymOIlbTYDnZ6hCdEmkxo-2">
          <mxGeometry relative="1" as="geometry" />
        </mxCell>
        <mxCell id="ymOIlbTYDnZ6hCdEmkxo-18" style="edgeStyle=orthogonalEdgeStyle;rounded=0;orthogonalLoop=1;jettySize=auto;html=1;exitX=0;exitY=0.5;exitDx=0;exitDy=0;entryX=1;entryY=0.5;entryDx=0;entryDy=0;endArrow=none;endFill=0;" edge="1" parent="1" source="ymOIlbTYDnZ6hCdEmkxo-16" target="ymOIlbTYDnZ6hCdEmkxo-1">
          <mxGeometry relative="1" as="geometry" />
        </mxCell>
        <mxCell id="ymOIlbTYDnZ6hCdEmkxo-16" value="Crear" style="rhombus;whiteSpace=wrap;html=1;" vertex="1" parent="1">
          <mxGeometry x="840" y="705" width="120" height="70" as="geometry" />
        </mxCell>
        <mxCell id="ymOIlbTYDnZ6hCdEmkxo-20" value="&lt;b&gt;&lt;font style=&quot;font-size: 18px;&quot;&gt;1:N&lt;/font&gt;&lt;/b&gt;" style="text;html=1;align=center;verticalAlign=middle;resizable=0;points=[];autosize=1;strokeColor=none;fillColor=none;" vertex="1" parent="1">
          <mxGeometry x="875" y="665" width="50" height="40" as="geometry" />
        </mxCell>
        <mxCell id="ymOIlbTYDnZ6hCdEmkxo-21" value="1" style="text;html=1;align=center;verticalAlign=middle;resizable=0;points=[];autosize=1;strokeColor=none;fillColor=none;" vertex="1" parent="1">
          <mxGeometry x="990" y="705" width="30" height="30" as="geometry" />
        </mxCell>
        <mxCell id="ymOIlbTYDnZ6hCdEmkxo-22" value="*" style="text;html=1;align=center;verticalAlign=middle;resizable=0;points=[];autosize=1;strokeColor=none;fillColor=none;" vertex="1" parent="1">
          <mxGeometry x="790" y="705" width="30" height="30" as="geometry" />
        </mxCell>
        <mxCell id="ymOIlbTYDnZ6hCdEmkxo-23" value="ponerNotas" style="rhombus;whiteSpace=wrap;html=1;" vertex="1" parent="1">
          <mxGeometry x="840" y="890" width="120" height="70" as="geometry" />
        </mxCell>
        <mxCell id="ymOIlbTYDnZ6hCdEmkxo-25" style="edgeStyle=orthogonalEdgeStyle;rounded=0;orthogonalLoop=1;jettySize=auto;html=1;exitX=0;exitY=0.5;exitDx=0;exitDy=0;entryX=0.583;entryY=1.083;entryDx=0;entryDy=0;entryPerimeter=0;endArrow=none;endFill=0;" edge="1" parent="1" source="ymOIlbTYDnZ6hCdEmkxo-23" target="ymOIlbTYDnZ6hCdEmkxo-1">
          <mxGeometry relative="1" as="geometry" />
        </mxCell>
        <mxCell id="ymOIlbTYDnZ6hCdEmkxo-26" value="&lt;b&gt;&lt;font style=&quot;font-size: 18px;&quot;&gt;1:N&lt;/font&gt;&lt;/b&gt;" style="text;html=1;align=center;verticalAlign=middle;resizable=0;points=[];autosize=1;strokeColor=none;fillColor=none;" vertex="1" parent="1">
          <mxGeometry x="875" y="850" width="50" height="40" as="geometry" />
        </mxCell>
        <mxCell id="ymOIlbTYDnZ6hCdEmkxo-28" style="edgeStyle=orthogonalEdgeStyle;rounded=0;orthogonalLoop=1;jettySize=auto;html=1;entryX=0.5;entryY=0;entryDx=0;entryDy=0;endArrow=none;endFill=0;" edge="1" parent="1" source="ymOIlbTYDnZ6hCdEmkxo-27" target="ymOIlbTYDnZ6hCdEmkxo-1">
          <mxGeometry relative="1" as="geometry" />
        </mxCell>
        <mxCell id="ymOIlbTYDnZ6hCdEmkxo-29" style="edgeStyle=orthogonalEdgeStyle;rounded=0;orthogonalLoop=1;jettySize=auto;html=1;entryX=0.5;entryY=0;entryDx=0;entryDy=0;endArrow=none;endFill=0;" edge="1" parent="1" source="ymOIlbTYDnZ6hCdEmkxo-27" target="ymOIlbTYDnZ6hCdEmkxo-3">
          <mxGeometry relative="1" as="geometry" />
        </mxCell>
        <mxCell id="ymOIlbTYDnZ6hCdEmkxo-27" value="Rechazar" style="rhombus;whiteSpace=wrap;html=1;" vertex="1" parent="1">
          <mxGeometry x="460" y="500" width="120" height="70" as="geometry" />
        </mxCell>
        <mxCell id="ymOIlbTYDnZ6hCdEmkxo-30" value="&lt;b&gt;&lt;font style=&quot;font-size: 18px;&quot;&gt;N:M&lt;/font&gt;&lt;/b&gt;" style="text;html=1;align=center;verticalAlign=middle;resizable=0;points=[];autosize=1;strokeColor=none;fillColor=none;" vertex="1" parent="1">
          <mxGeometry x="490" y="450" width="60" height="40" as="geometry" />
        </mxCell>
      </root>
    </mxGraphModel>
  </diagram>
</mxfile>
